<?xml version="1.0" standalone="no"?><!DOCTYPE svg PUBLIC "-//W3C//DTD SVG 1.1//EN" "http://www.w3.org/Graphics/SVG/1.1/DTD/svg11.dtd"><svg t="1694190938526" class="icon" viewBox="0 0 1024 1024" version="1.1" xmlns="http://www.w3.org/2000/svg" p-id="1303" xmlns:xlink="http://www.w3.org/1999/xlink" width="300" height="300"><path d="M512 512.8704m-432.3328 0a432.3328 432.3328 0 1 0 864.6656 0 432.3328 432.3328 0 1 0-864.6656 0Z" fill="#51C5FF" p-id="1304"></path><path d="M287.0272 418.7136c-85.0432 0-160.4096 41.3696-207.104 105.0624 4.5568 182.7328 122.368 337.3056 285.952 396.032 103.2192-33.28 177.92-130.048 177.92-244.3776 0-141.7216-114.944-256.7168-256.768-256.7168z" fill="#7BE0FF" p-id="1305"></path><path d="M455.0144 490.4448H313.5488c-22.0672 0-39.936-17.8688-39.936-39.936V308.992c0-22.0672 17.8688-39.936 39.936-39.936h141.4656c22.0672 0 39.936 17.8688 39.936 39.936v141.4656a39.936 39.936 0 0 1-39.936 39.9872zM455.0144 757.504H313.5488c-22.0672 0-39.936-17.8688-39.936-39.936v-141.4656c0-22.0672 17.8688-39.936 39.936-39.936h141.4656c22.0672 0 39.936 17.8688 39.936 39.936v141.4656c0 22.0672-17.8688 39.936-39.936 39.936zM718.0288 757.504h-141.4656c-22.0672 0-39.936-17.8688-39.936-39.936v-141.4656c0-22.0672 17.8688-39.936 39.936-39.936h141.4656c22.0672 0 39.936 17.8688 39.936 39.936v141.4656c0 22.0672-17.8688 39.936-39.936 39.936z" fill="#FFFFFF" p-id="1306"></path><path d="M609.536 481.6896L542.208 414.3616c-20.8384-20.8384-20.8384-54.6304 0-75.4688l67.328-67.328c20.8384-20.8384 54.6304-20.8384 75.4688 0l67.328 67.328c20.8384 20.8384 20.8384 54.6304 0 75.4688L685.056 481.6896c-20.8384 20.8384-54.6304 20.8384-75.52 0z" fill="#CAF8FF" p-id="1307"></path></svg>