<?xml version="1.0" standalone="no"?><!DOCTYPE svg PUBLIC "-//W3C//DTD SVG 1.1//EN" "http://www.w3.org/Graphics/SVG/1.1/DTD/svg11.dtd"><svg t="1694191010674" class="icon" viewBox="0 0 1024 1024" version="1.1" xmlns="http://www.w3.org/2000/svg" p-id="1099" xmlns:xlink="http://www.w3.org/1999/xlink" width="300" height="300"><path d="M426.666667 597.333333m-426.666667 0a426.666667 426.666667 0 1 0 853.333333 0 426.666667 426.666667 0 1 0-853.333333 0Z" fill="#3795F3" p-id="1100"></path><path d="M106.666667 533.333333h170.666666" p-id="1101"></path><path d="M277.333333 554.666667H106.666667c-12.8 0-21.333333-8.533333-21.333334-21.333334s8.533333-21.333333 21.333334-21.333333h170.666666c12.8 0 21.333333 8.533333 21.333334 21.333333s-8.533333 21.333333-21.333334 21.333334z" fill="#E2F0FE" p-id="1102"></path><path d="M486.4 17.066667c140.8 4.266667 268.8 64 362.666667 157.866666s153.6 221.866667 157.866666 362.666667H486.4V17.066667z" fill="#66B3FF" p-id="1103"></path><path d="M1024 554.666667H469.333333V0h17.066667c140.8 4.266667 275.2 61.866667 375.466667 162.133333 100.266667 100.266667 157.866667 232.533333 162.133333 375.466667v17.066667z m-520.533333-34.133334h484.266666c-6.4-125.866667-59.733333-243.2-149.333333-334.933333-91.733333-89.6-209.066667-142.933333-334.933333-149.333333v484.266666z" fill="#82BFFB" p-id="1104"></path><path d="M768 441.6c-6.4 0-10.666667-2.133333-14.933333-6.4-8.533333-8.533333-8.533333-21.333333 0-29.866667l66.133333-66.133333-66.133333-66.133333c-8.533333-8.533333-8.533333-21.333333 0-29.866667s21.333333-8.533333 29.866666 0l96 96-96 96c-4.266667 4.266667-8.533333 6.4-14.933333 6.4z" fill="#F7F9FC" p-id="1105"></path><path d="M678.4 441.6c-6.4 0-10.666667-2.133333-14.933333-6.4l-96-96 96-96c8.533333-8.533333 21.333333-8.533333 29.866666 0s8.533333 21.333333 0 29.866667l-66.133333 66.133333 66.133333 66.133333c8.533333 8.533333 8.533333 21.333333 0 29.866667-2.133333 4.266667-8.533333 6.4-14.933333 6.4z" fill="#F7F9FC" p-id="1106"></path></svg>