<?xml version="1.0" standalone="no"?><!DOCTYPE svg PUBLIC "-//W3C//DTD SVG 1.1//EN" "http://www.w3.org/Graphics/SVG/1.1/DTD/svg11.dtd"><svg t="1694192486803" class="icon" viewBox="0 0 1024 1024" version="1.1" xmlns="http://www.w3.org/2000/svg" p-id="1429" xmlns:xlink="http://www.w3.org/1999/xlink" width="300" height="300"><path d="M510.57 818.4c-296.76-1.21-280.34-54.6-272.67-106.62 9-61.52 131.65-68.13 175.15-96.25 34.32-22.19 16.94-72.68 15.32-76.35-24.66-20.78-44-50.7-54.85-85.86-12.48-3.31-23.6-20-26.39-41.19-3-22.77 4.63-42.94 17.36-47.81 6.37-90.24 51.29-160 145.75-160h0.67c94.45 0 139.38 69.81 145.74 160 12.73 4.87 20.36 25 17.36 47.81-2.79 21.23-13.9 37.88-26.38 41.19-10.88 35.16-30.2 65.08-54.86 85.86-1.62 3.67-19 54.16 15.32 76.35 43.51 28.12 166.14 34.73 175.16 96.25 7.66 52.02 24.09 105.41-272.68 106.62z" fill="#468EF7" p-id="1430"></path><path d="M192.76 709.28c0.21-1.35 0.42-2.7 0.61-4 2.74-18.66 10.89-35.56 24.24-50.2 10-11 22.62-20.41 38.62-28.89 24.9-13.21 54.42-22 80.46-29.75 17.68-5.26 37.45-11.14 48.18-16.56a7.76 7.76 0 0 0 4.28-6.52v-0.09a7.69 7.69 0 0 0-1.13-4.33 37.61 37.61 0 0 1-4.15-9.87c-20.09-20.92-36.19-46.49-47.41-75.4-17.77-14.41-30.29-37.88-33.94-65.64-2.41-18.29-0.62-36.28 5.16-52a81.34 81.34 0 0 1 13.86-24.3 281.69 281.69 0 0 1 12.55-55 226.66 226.66 0 0 1 11.65-27.91 132.53 132.53 0 0 0-23.29-2h-0.52c-74.23 0-109.53 54.86-114.53 125.77-10 3.83-16 19.67-13.64 37.57 2.19 16.68 10.93 29.76 20.73 32.37 8.51 27.59 23.73 51.1 43.11 67.47 1.27 2.89 14.92 42.56-12 60-34.19 22.11-130.56 27.3-137.64 75.64-4.53 30.72-12.94 62 82.15 76.13 0.47-8.06 1.6-15.55 2.65-22.49zM913.23 655.59c-7.09-48.34-103.45-53.53-137.64-75.64-27-17.43-13.31-57.1-12-60 19.38-16.33 34.55-39.84 43.1-67.47 9.81-2.61 18.55-15.69 20.74-32.37 2.35-17.9-3.64-33.74-13.64-37.57-5-70.91-40.31-125.77-114.53-125.77h-0.53a132.53 132.53 0 0 0-23.29 2 225.12 225.12 0 0 1 11.65 27.91 281 281 0 0 1 12.55 55A81.37 81.37 0 0 1 713.47 366c5.78 15.74 7.57 33.73 5.16 52-3.65 27.75-16.17 51.23-33.94 65.65-11.23 28.9-27.32 54.47-47.41 75.39a38 38 0 0 1-4.16 9.87 7.65 7.65 0 0 0-1.13 4.32v0.1a7.77 7.77 0 0 0 4.28 6.53c10.74 5.41 30.5 11.29 48.18 16.55 26 7.75 55.55 16.54 80.46 29.75 16 8.48 28.62 17.93 38.61 28.89 13.35 14.64 21.51 31.54 24.24 50.17 0.2 1.35 0.4 2.71 0.61 4.06 1 6.93 2.18 14.43 2.7 22.44 95.09-14.08 86.68-45.41 82.16-76.13z" fill="#69ADFF" p-id="1431"></path></svg>