<?xml version="1.0" standalone="no"?><!DOCTYPE svg PUBLIC "-//W3C//DTD SVG 1.1//EN" "http://www.w3.org/Graphics/SVG/1.1/DTD/svg11.dtd"><svg t="1694191722419" class="icon" viewBox="0 0 1024 1024" version="1.1" xmlns="http://www.w3.org/2000/svg" p-id="12847" xmlns:xlink="http://www.w3.org/1999/xlink" width="300" height="300"><path d="M510.5152 512.8704m-432.3328 0a432.3328 432.3328 0 1 0 864.6656 0 432.3328 432.3328 0 1 0-864.6656 0Z" fill="#00DBFF" p-id="12848"></path><path d="M285.5424 418.7136c-85.0432 0-160.4096 41.3696-207.104 105.0624 4.5568 182.7328 122.368 337.3056 285.952 396.032 103.2192-33.28 177.92-130.048 177.92-244.3776 0-141.7216-114.944-256.7168-256.768-256.7168z" fill="#33ECFF" p-id="12849"></path><path d="M546.56 772.096l115.4048-147.0976H359.0656l115.4048 147.0976c18.3296 23.3984 53.76 23.3984 72.0896 0z" fill="#C2FFFF" p-id="12850"></path><path d="M678.5536 289.3824H342.4768c-56.1664 0-101.6832 45.5168-101.6832 101.6832v208.5888c0 56.1664 45.5168 101.6832 101.6832 101.6832h336.128c56.1664 0 101.6832-45.5168 101.6832-101.6832V391.0656c0-56.1664-45.568-101.6832-101.7344-101.6832z m-129.0752 301.1584H359.8336a28.98432 28.98432 0 0 1 0-57.9584h189.6448a28.98432 28.98432 0 0 1 0 57.9584z m111.7184-134.7584H359.8336a28.98432 28.98432 0 0 1 0-57.9584h301.3632c15.9744 0 28.9792 12.9536 28.9792 28.9792-0.0512 16.0256-13.0048 28.9792-28.9792 28.9792z" fill="#FFFFFF" p-id="12851"></path></svg>